<?xml version="1.0" encoding="UTF-8" standalone="no"?>
<!-- Created with Inkscape (http://www.inkscape.org/) -->

<svg
   width="127.99458mm"
   height="102.8802mm"
   viewBox="0 0 127.99458 102.8802"
   version="1.1"
   id="svg5"
   inkscape:version="1.1.2 (0a00cf5339, 2022-02-04)"
   sodipodi:docname="seligadev-logo.svg"
   inkscape:export-filename="/home/jandernery/Documentos/Aulas/seligadev-logo4.png"
   inkscape:export-xdpi="96"
   inkscape:export-ydpi="96"
   xmlns:inkscape="http://www.inkscape.org/namespaces/inkscape"
   xmlns:sodipodi="http://sodipodi.sourceforge.net/DTD/sodipodi-0.dtd"
   xmlns="http://www.w3.org/2000/svg"
   xmlns:svg="http://www.w3.org/2000/svg">
  <sodipodi:namedview
     id="namedview7"
     pagecolor="#ffffff"
     bordercolor="#666666"
     borderopacity="1.0"
     inkscape:pageshadow="2"
     inkscape:pageopacity="0.0"
     inkscape:pagecheckerboard="0"
     inkscape:document-units="mm"
     showgrid="false"
     inkscape:zoom="1.9203775"
     inkscape:cx="241.87953"
     inkscape:cy="194.23264"
     inkscape:window-width="1920"
     inkscape:window-height="1007"
     inkscape:window-x="0"
     inkscape:window-y="0"
     inkscape:window-maximized="1"
     inkscape:current-layer="layer1"
     fit-margin-top="0"
     fit-margin-left="0"
     fit-margin-right="0"
     fit-margin-bottom="0" />
  <defs
     id="defs2" />
  <g
     inkscape:label="Camada 1"
     inkscape:groupmode="layer"
     id="layer1"
     transform="translate(-44.665359,-94.448039)">
    <rect
       style="fill:#ececec;stroke:#000000;stroke-width:0.830637;stroke-miterlimit:4;stroke-dasharray:none;stroke-opacity:1;paint-order:fill markers stroke"
       id="rect2715"
       width="127.16395"
       height="102.04957"
       x="45.080677"
       y="94.863358"
       sodipodi:insensitive="true" />
    <g
       id="g1221"
       transform="translate(9.6416542,8.8451142)">
      <g
         id="g2498"
         transform="matrix(0.1495756,0,0,0.1158237,84.624746,124.82572)">
        <path
           d="m -87.098418,148.07771 h 47.24753 V 74.861852 h -47.24753 z"
           style="fill:#e6e6e6;fill-opacity:1;fill-rule:nonzero;stroke:none;stroke-width:0.0352778"
           id="path982" />
        <path
           d="m -39.850888,148.07771 v -0.17639 h -47.07114 V 75.038241 h 46.89476 v 73.039469 h 0.17638 v -0.17639 0.17639 h 0.17639 V 74.685463 h -47.60031 V 148.2541 h 47.60031 v -0.17639 h -0.17639"
           style="fill:#17282f;fill-opacity:1;fill-rule:nonzero;stroke:none;stroke-width:0.0352778"
           id="path984" />
        <path
           d="m -87.098418,74.861852 -2.61902,-4.058356 h 52.48558 l -2.61903,4.058356 h -47.24753"
           style="fill:#ececec;fill-opacity:1;fill-rule:nonzero;stroke:none;stroke-width:0.0352778"
           id="path986" />
        <path
           d="m -87.098418,74.861852 0.14817,-0.0956 -2.44334,-3.786364 h 51.83788 l -2.39113,3.705578 h -47.15158 v 0.176389 l 0.14817,-0.0956 -0.14817,0.0956 v 0.176389 h 47.34349 l 2.84692,-4.411134 h -53.13328 l 2.84692,4.411134 h 0.0959 v -0.176389"
           style="fill:#17282f;fill-opacity:1;fill-rule:nonzero;stroke:none;stroke-width:0.0352778"
           id="path988" />
        <path
           d="m -39.850888,74.861852 v 73.215858 l 2.6155,3.31893 0.004,-80.593144 -2.61903,4.058356"
           style="fill:#e6e6e6;fill-opacity:1;fill-rule:nonzero;stroke:none;stroke-width:0.0352778"
           id="path990" />
        <path
           d="m -39.850888,74.861852 h -0.17638 v 73.276888 l 2.96827,3.76661 0.004,-81.700518 -2.9718,4.605161 v 0.05186 h 0.17638 l 0.14817,0.0956 2.29447,-3.555295 -0.004,79.485772 -2.26272,-2.87125 V 74.861852 h -0.17639 l 0.14817,0.0956 -0.14817,-0.0956"
           style="fill:#17282f;fill-opacity:1;fill-rule:nonzero;stroke:none;stroke-width:0.0352778"
           id="path992" />
        <path
           d="m -87.098418,74.861852 v 73.215858 l -2.61902,4.05835 V 70.803496 l 2.61902,4.058356"
           style="fill:#e6e6e6;fill-opacity:1;fill-rule:nonzero;stroke:none;stroke-width:0.0352778"
           id="path994" />
        <path
           d="m -87.098418,74.861852 h -0.17639 v 73.163998 l -2.26624,3.51155 V 71.40216 l 2.29447,3.555295 0.14816,-0.0956 h -0.17639 0.17639 l 0.14817,-0.0956 -2.94358,-4.561064 v 82.529549 l 2.9718,-4.60517 V 74.809993 l -0.0282,-0.04374 -0.14817,0.0956"
           style="fill:#17282f;fill-opacity:1;fill-rule:nonzero;stroke:none;stroke-width:0.0352778"
           id="path996" />
        <path
           d="m -87.098418,148.07771 h 47.24753 l 2.61903,4.05835 h -52.48558 l 2.61902,-4.05835"
           style="fill:#ececec;fill-opacity:1;fill-rule:nonzero;stroke:none;stroke-width:0.0352778"
           id="path998" />
        <path
           d="m -87.098418,148.07771 v 0.17639 h 47.15123 l 2.39148,3.70558 h -51.83788 l 2.44334,-3.78637 -0.14817,-0.0956 v 0.17639 -0.17639 l -0.14816,-0.0956 -2.79471,4.33035 h 53.13328 l -2.84692,-4.41113 h -47.43944 l -0.0522,0.0808 0.14816,0.0956"
           style="fill:#17282f;fill-opacity:1;fill-rule:nonzero;stroke:none;stroke-width:0.0352778"
           id="path1000" />
        <path
           d="m -58.721678,124.11387 h -9.46502 V 98.60415 h 9.46502 v 25.50972"
           style="fill:#cccccc;fill-opacity:1;fill-rule:nonzero;stroke:none;stroke-width:0.0352778"
           id="path1002" />
        <path
           d="m -58.721678,124.11387 v -0.17639 h -9.28864 V 98.780539 h 9.11226 v 25.333331 h 0.17638 v -0.17639 0.17639 h 0.17639 V 98.427762 h -9.8178 v 25.862488 h 9.8178 v -0.17638 h -0.17639"
           style="fill:#17282f;fill-opacity:1;fill-rule:nonzero;stroke:none;stroke-width:0.0352778"
           id="path1004" />
        <path
           d="m -59.389128,111.9067 h -8.17104 v -11.80289 h 8.17104 v 11.80289"
           style="fill:#ffffff;fill-opacity:1;fill-rule:nonzero;stroke:none;stroke-width:0.0352778"
           id="path1006" />
        <path
           d="m -59.389128,111.9067 v -0.17639 h -7.99465 V 100.2802 h 7.81826 v 11.6265 h 0.17639 v -0.17639 0.17639 h 0.17639 V 99.92742 h -8.52382 v 12.15566 h 8.52382 v -0.17638 h -0.17639"
           style="fill:#17282f;fill-opacity:1;fill-rule:nonzero;stroke:none;stroke-width:0.0352778"
           id="path1008" />
        <path
           d="m -59.389128,118.44649 h -8.17104 v -14.37675 h 8.17104 v 14.37675"
           style="fill:#17282f;fill-opacity:1;fill-rule:nonzero;stroke:none;stroke-width:0.0352778"
           id="path1010" />
        <path
           d="m -59.389128,122.8361 h -8.17104 v -4.58399 h 8.17104 v 4.58399"
           style="fill:#17282f;fill-opacity:1;fill-rule:nonzero;stroke:none;stroke-width:0.0352778"
           id="path1012" />
        <path
           d="m -59.389128,111.9067 h -8.17104 v 6.34541 h 8.17104 v -6.34541"
           style="fill:#ffffff;fill-opacity:1;fill-rule:nonzero;stroke:none;stroke-width:0.0352778"
           id="path1014" />
        <path
           d="m -59.389128,111.9067 v -0.17639 h -8.34743 v 6.69819 h 8.52382 v -6.69819 h -0.17639 v 0.17639 h -0.17639 v 6.16902 h -7.81826 v -5.99264 h 7.99465 v -0.17638 h -0.17639 0.17639"
           style="fill:#17282f;fill-opacity:1;fill-rule:nonzero;stroke:none;stroke-width:0.0352778"
           id="path1016" />
        <path
           d="m -70.227878,140.04284 c 0.3108,-0.56021 0.49777,-1.36983 0.49777,-1.36983 0,0 3.48404,0.38488 3.92113,0.45931 0.21696,4.49369 0.74789,11.28431 0.96414,13.12439 0.2981,2.53295 -1.78823,2.2352 -2.68217,1.93711 -0.89394,-0.2981 -3.13725,-9.41882 -3.57293,-10.35297 -0.43568,-0.93381 -0.43568,-1.18287 -0.43568,-1.18287 0,0 0.99624,-2.05457 1.30774,-2.61514 m -8.2303,65.51158 c 0.06,1.31547 -0.3683,18.43857 -0.61736,24.94347 h 30.74811 c 0.70309,-6.52748 2.2539,-24.24575 4.57588,-30.59285 3.26637,-8.92779 5.87904,-20.90389 5.87904,-24.38757 0,-3.48403 1.08903,-13.93613 1.30669,-16.11348 0.21802,-2.17734 0.31644,-7.70713 -0.078,-9.58074 -0.39441,-1.87325 -0.88759,-4.43724 -0.59161,-6.90209 0.29563,-2.46522 0.69003,-3.55001 -1.18322,-4.14162 -1.8736,-0.5916 -4.83164,0.59161 -6.21206,4.53602 -1.38042,3.94406 -1.57798,6.90175 -1.47885,8.08532 0.0984,1.18321 0.19685,2.56328 0.19685,2.56328 0,0 -1.18286,1.97238 -1.57727,3.25402 -0.39475,1.282 -1.28199,3.64843 -1.28199,3.64843 l -3.74685,-10.05734 -3.74686,-13.50857 -2.32022,-12.76103 c 0,0 -0.89429,-6.55673 -2.53329,-8.49383 -1.63936,-1.93746 -5.3647,-1.19239 -5.66279,4.02308 -0.2981,5.21581 1.04316,12.96458 0.89394,15.349 -0.004,0.066 -0.007,0.14217 -0.01,0.22296 l -0.0663,-2.01859 c 0,0 -4.13985,-2.29624 -5.75875,-3.10586 -1.61889,-0.80927 -5.16784,0.12453 -6.03955,1.49437 -0.87207,1.36983 -2.67759,4.04706 -3.2378,5.04331 -0.56056,0.99624 -0.56056,0.99624 -0.56056,0.99624 0,0 -3.83081,0.17463 -4.91666,1.34409 -1.08621,1.16945 -3.50873,6.68267 -3.92642,7.51804 -0.41734,0.83538 -1.75437,5.17913 -3.2579,8.35378 -1.50354,3.1743 -2.25531,5.01192 -1.25272,7.01675 1.00224,2.00484 1.41993,3.92607 1.41993,3.92607 0,0 3.67559,12.61392 6.01451,19.71428 2.33892,7.10071 8.93833,17.79305 9.02159,19.63106"
           style="fill:#ffffff;fill-opacity:1;fill-rule:nonzero;stroke:none;stroke-width:0.0352778"
           id="path1020" />
        <path
           d="m -70.227878,140.04284 0.15417,0.0857 c 0.32843,-0.59478 0.51258,-1.40829 0.51541,-1.4157 l -0.17181,-0.0399 -0.0194,0.17533 c 0.002,3.6e-4 0.87066,0.0963 1.79599,0.20179 0.92287,0.10478 1.91029,0.22084 2.1149,0.25612 l 0.0296,-0.17392 -0.17639,0.008 c 0.21766,4.49968 0.74789,11.28607 0.96555,13.13639 0.0187,0.16051 0.0275,0.30797 0.0275,0.44308 -0.002,0.62936 -0.18415,0.98214 -0.43533,1.19557 -0.25188,0.21343 -0.60501,0.29527 -0.97508,0.29492 -0.39158,3.5e-4 -0.79304,-0.0921 -1.06856,-0.18415 l -0.007,-0.004 c -0.0212,-0.0113 -0.0751,-0.0628 -0.13335,-0.14817 -0.11218,-0.16051 -0.25012,-0.43356 -0.39687,-0.78105 -0.51647,-1.22025 -1.1617,-3.36197 -1.71803,-5.28602 -0.27869,-0.96273 -0.53552,-1.87219 -0.74507,-2.58939 -0.10512,-0.35877 -0.1979,-0.66922 -0.27622,-0.9151 -0.079,-0.24695 -0.14076,-0.42545 -0.19227,-0.53658 -0.21554,-0.46143 -0.32138,-0.75036 -0.37253,-0.91863 -0.0254,-0.084 -0.0374,-0.13794 -0.0427,-0.16757 l -0.004,-0.0272 -3.5e-4,-10e-4 -0.11783,0.006 h 0.11818 l -3.5e-4,-0.006 -0.11783,0.006 h 0.11818 -0.17638 l 0.15839,0.0769 c 7.1e-4,-0.001 0.24906,-0.51329 0.53658,-1.09643 0.28751,-0.58209 0.61524,-1.23755 0.76694,-1.50989 l -0.15417,-0.0857 -0.15416,-0.0857 c -0.31785,0.5722 -1.31128,2.62149 -1.31233,2.62361 l -0.0176,0.0367 v 0.0406 c 0.002,0.0497 0.0123,0.3115 0.45226,1.25765 0.0455,0.0963 0.12982,0.34219 0.23318,0.67804 0.36513,1.1818 1.00295,3.53201 1.64712,5.61904 0.32244,1.04423 0.64629,2.02247 0.94122,2.76225 0.14781,0.37006 0.28751,0.68016 0.42015,0.91369 0.0667,0.11713 0.13124,0.21485 0.19826,0.29422 0.0684,0.0783 0.13688,0.14288 0.23707,0.17815 0.30445,0.10125 0.73413,0.20215 1.18004,0.2025 0.41769,-3.5e-4 0.85796,-0.0893 1.20227,-0.37783 0.34537,-0.28892 0.56303,-0.76976 0.56092,-1.46544 0,-0.15063 -0.01,-0.3115 -0.03,-0.48436 -0.21519,-1.82985 -0.74683,-8.62471 -0.96344,-13.11204 l -0.007,-0.14147 -0.1397,-0.024 c -0.23248,-0.0395 -1.20579,-0.1531 -2.1343,-0.25893 -0.92605,-0.10548 -1.79705,-0.20179 -1.79705,-0.20179 l -0.15593,-0.0169 -0.0356,0.15275 c 0,0 -0.0106,0.0473 -0.0325,0.12982 -0.0646,0.24659 -0.22789,0.8001 -0.44767,1.1938 l 0.15451,0.0857 m -8.2303,65.51158 -0.17604,0.008 c 0.004,0.0783 0.006,0.2275 0.006,0.43352 0,3.0208 -0.39053,18.41183 -0.62301,24.49547 l -0.007,0.18314 h 31.08961 l 0.0169,-0.15765 c 0.35172,-3.26609 0.91511,-9.32548 1.68063,-15.36073 0.76412,-6.03289 1.73532,-12.04983 2.88573,-15.19022 1.63653,-4.47326 3.10762,-9.70421 4.17053,-14.25575 1.06257,-4.55436 1.71768,-8.41516 1.71909,-10.19246 0,-1.72685 0.27164,-5.213 0.57115,-8.53087 0.29915,-3.31929 0.62583,-6.47559 0.73483,-7.56497 0.11148,-1.1176 0.19121,-3.09174 0.19121,-5.01544 -7.1e-4,-1.86302 -0.073,-3.66677 -0.27234,-4.61927 -0.3101,-1.47144 -0.67804,-3.36162 -0.67804,-5.28426 0,-0.52035 0.0268,-1.04317 0.0889,-1.56069 0.11677,-0.97578 0.25153,-1.73743 0.25223,-2.36255 3.6e-4,-0.47167 -0.0801,-0.87807 -0.32879,-1.21215 -0.24906,-0.33373 -0.64629,-0.57185 -1.22872,-0.75565 -0.3175,-0.10019 -0.66181,-0.15205 -1.02235,-0.15205 -1.89759,0 -4.23192,1.42946 -5.40914,4.79778 -1.19592,3.41736 -1.51025,6.09918 -1.5106,7.55298 0,0.23353 0.008,0.43568 0.0226,0.60536 0.049,0.59055 0.0981,1.2312 0.13511,1.72367 0.0371,0.49283 0.0614,0.83679 0.0617,0.8375 l 0.17568,-0.0127 -0.15099,-0.0907 c -0.001,0.002 -0.29845,0.49707 -0.64558,1.15465 -0.34749,0.65863 -0.74507,1.47567 -0.94932,2.13818 -0.19544,0.635 -0.51577,1.54658 -0.78635,2.29694 -0.13546,0.37535 -0.25858,0.71085 -0.34783,0.9525 -0.0893,0.2413 -0.14429,0.38841 -0.14429,0.38876 l 0.1651,0.0621 0.1651,-0.0617 -3.74403,-10.04993 -3.74262,-13.49375 -2.31916,-12.75327 -0.17322,0.0318 0.17463,-0.024 c -3.5e-4,-0.003 -0.22437,-1.64606 -0.65476,-3.53589 -0.21519,-0.9451 -0.48189,-1.95157 -0.79974,-2.84868 -0.31892,-0.89712 -0.68404,-1.68381 -1.11902,-2.19922 -0.5662,-0.66993 -1.37195,-1.04034 -2.2098,-1.03999 -0.86783,-7.1e-4 -1.76741,0.39864 -2.4645,1.24566 -0.6985,0.84737 -1.19698,2.13572 -1.29893,3.92148 -0.0303,0.52846 -0.0437,1.08161 -0.0437,1.65205 0,2.40066 0.23812,5.10576 0.47554,7.52087 0.23742,2.41336 0.47378,4.54202 0.47343,5.76263 0,0.15275 -0.004,0.29069 -0.0113,0.41204 -0.004,0.0692 -0.007,0.14711 -0.01,0.22896 l 0.17639,0.005 0.17639,-0.006 -0.0695,-2.11843 -0.0875,-0.0487 c -0.001,-7.1e-4 -4.13879,-2.29588 -5.76544,-3.10939 -0.45262,-0.22542 -1.01988,-0.31891 -1.63054,-0.31961 -0.88336,7e-4 -1.8602,0.19896 -2.70793,0.5281 -0.84666,0.33162 -1.56668,0.78564 -1.92898,1.34903 -0.43427,0.68227 -1.10385,1.69439 -1.73461,2.65994 -0.63112,0.96626 -1.22238,1.88348 -1.50778,2.39148 -0.56056,0.99625 -0.56056,0.99625 -0.56056,0.99625 l 0.15346,0.0864 -0.008,-0.17604 c -0.005,0 -0.96767,0.0437 -2.07328,0.23566 -0.55315,0.0963 -1.14194,0.22895 -1.66793,0.41486 -0.52564,0.18662 -0.9906,0.42192 -1.29681,0.74966 -0.29351,0.31714 -0.6477,0.88476 -1.03787,1.58467 -0.5835,1.04846 -1.23437,2.38584 -1.77942,3.54048 -0.54433,1.15358 -0.98495,2.12902 -1.1377,2.43417 -0.11289,0.22683 -0.27305,0.65334 -0.4819,1.23013 -0.62336,1.72509 -1.65629,4.75933 -2.77777,7.12682 -1.03046,2.17981 -1.72332,3.74297 -1.72614,5.20735 -3.5e-4,0.66887 0.14887,1.31269 0.47484,1.96356 v 0 c 0.49565,0.99131 0.84772,1.96462 1.07562,2.68923 0.11359,0.3623 0.19649,0.66216 0.25082,0.871 0.0268,0.10443 0.0469,0.18627 0.06,0.24166 0.0131,0.055 0.019,0.0829 0.019,0.0833 l 0.001,0.006 0.002,0.006 c 3.5e-4,0.001 3.67559,12.61428 6.01627,19.72028 1.17687,3.57047 3.41418,8.02182 5.36752,11.81457 0.97648,1.89537 1.88206,3.62578 2.5474,4.99388 0.33232,0.68365 0.60466,1.27745 0.79481,1.75261 0.19121,0.47335 0.29704,0.83784 0.30339,1.02235 l 0.17604,-0.008 0.17639,-0.008 c -0.0145,-0.27492 -0.133,-0.64629 -0.32809,-1.13743 -0.68403,-1.70741 -2.34773,-4.78716 -4.09892,-8.22565 -1.75049,-3.43644 -3.58634,-7.22669 -4.6034,-10.31491 -1.1684,-3.54718 -2.67194,-8.47513 -3.88303,-12.51514 -0.60536,-2.02036 -1.13806,-3.81882 -1.51906,-5.1121 -0.1905,-0.64665 -0.34325,-1.16699 -0.44838,-1.52542 -0.10477,-0.35877 -0.16227,-0.55527 -0.16227,-0.55562 l -0.16934,0.049 0.17251,-0.0374 c -0.002,-0.008 -0.42157,-1.94028 -1.43475,-3.96769 -0.30339,-0.60748 -0.43744,-1.18921 -0.43779,-1.80587 -0.003,-1.34585 0.65969,-2.88043 1.69227,-5.05636 0.75636,-1.59703 1.46756,-3.48051 2.04258,-5.06942 0.28752,-0.79445 0.54081,-1.51553 0.74789,-2.08844 0.20638,-0.57185 0.37007,-1.00154 0.46567,-1.19239 0.21343,-0.42721 0.92075,-2.00836 1.71344,-3.63538 0.39582,-0.8128 0.81245,-1.63547 1.19627,-2.32551 0.38241,-0.68862 0.73837,-1.24883 0.98813,-1.51624 0.23707,-0.25717 0.65793,-0.48224 1.15605,-0.65722 0.74684,-0.26388 1.66088,-0.42369 2.38443,-0.5147 0.36195,-0.0459 0.67663,-0.0748 0.90029,-0.0924 0.22366,-0.0176 0.35454,-0.0233 0.35489,-0.0233 l 0.0977,-0.005 0.048,-0.0854 c 0,0 0,0 0.56056,-0.9959 0.27447,-0.48859 0.86643,-1.40828 1.49578,-2.37172 0.63042,-0.96485 1.29964,-1.97661 1.73708,-2.66347 0.2854,-0.45509 0.95215,-0.89818 1.7593,-1.20968 0.8061,-0.31397 1.74943,-0.50447 2.57987,-0.50412 0.57432,-3.5e-4 1.09326,0.0917 1.47284,0.28222 0.80434,0.40217 2.24438,1.17899 3.48086,1.85385 0.61807,0.33726 1.18604,0.64947 1.5995,0.87736 0.4131,0.22789 0.67098,0.37112 0.67169,0.37148 l 0.0854,-0.15452 -0.17604,0.006 0.066,2.01824 0.35278,-3.5e-4 c 0.002,-0.0794 0.005,-0.15417 0.009,-0.21731 0.008,-0.13124 0.012,-0.27588 0.012,-0.43427 -3.6e-4,-1.25977 -0.23813,-3.38385 -0.4752,-5.7972 -0.23706,-2.41194 -0.47378,-5.10822 -0.47378,-7.4863 0,-0.5648 0.0134,-1.1116 0.043,-1.63195 0.0991,-1.73108 0.58068,-2.94322 1.21885,-3.71687 0.63923,-0.77399 1.43263,-1.11689 2.19251,-1.1176 0.73413,3.6e-4 1.43898,0.32244 1.94064,0.91511 0.38488,0.45297 0.74612,1.2125 1.05586,2.08915 0.46637,1.31621 0.82691,2.89772 1.06962,4.14761 0.12136,0.62477 0.21343,1.16734 0.27482,1.55293 0.0617,0.38594 0.0928,0.61348 0.0928,0.61383 l 7e-4,0.004 2.32234,12.77267 3.75108,13.52374 3.91407,10.50679 0.16581,-0.44203 c 7e-4,-0.002 0.88759,-2.36644 1.28517,-3.65831 0.19015,-0.61913 0.58138,-1.42875 0.92428,-2.0768 0.17145,-0.32456 0.33055,-0.6096 0.44697,-0.81316 0.11641,-0.20355 0.18908,-0.32455 0.18908,-0.3249 l 0.0286,-0.048 -0.004,-0.0554 c 0,-3.5e-4 -0.0984,-1.38077 -0.1972,-2.56576 -0.0131,-0.15733 -0.0212,-0.35066 -0.0212,-0.57573 -3.5e-4,-1.40547 0.30762,-4.05659 1.49084,-7.43655 1.143,-3.26108 3.35739,-4.56142 5.07612,-4.56142 0.32667,0 0.63535,0.0469 0.91616,0.13547 0.5461,0.1725 0.86607,0.38029 1.05199,0.63006 0.18591,0.24976 0.25823,0.56515 0.25893,1.00153 7.1e-4,0.57397 -0.13123,1.33597 -0.24941,2.32057 -0.0642,0.5334 -0.0917,1.06998 -0.0917,1.60267 0,1.96674 0.375,3.88021 0.6858,5.35694 0.18838,0.89005 0.26564,2.69734 0.26493,4.5466 0,1.91311 -0.0801,3.88444 -0.18979,4.98052 -0.10901,1.08796 -0.43568,4.24638 -0.73519,7.56814 -0.29951,3.32352 -0.5722,6.80543 -0.57256,8.56262 0.001,1.70639 -0.64946,5.57565 -1.70991,10.11202 -1.0601,4.53955 -2.52871,9.76066 -4.15819,14.21476 -1.17193,3.20682 -2.13713,9.22239 -2.90442,15.26717 -0.76659,6.04241 -1.33033,12.10591 -1.68169,15.36745 l 0.17568,0.019 v -0.17639 h -30.74811 v 0.17639 l 0.17639,0.007 c 0.23283,-6.09133 0.623,-21.47357 0.62335,-24.50884 -3.5e-4,-0.20877 -0.002,-0.3587 -0.006,-0.44936 l -0.17639,0.008"
           style="fill:#17282f;fill-opacity:1;fill-rule:nonzero;stroke:none;stroke-width:0.0352778"
           id="path1022" />
        <path
           d="m -67.827578,222.34692 c -5.36645,4.3e-4 -7.12893,-14.65791 -8.89106,-18.03576 -1.81363,-3.47666 -6.49957,-12.09248 -8.61589,-16.4761 -2.11631,-4.38362 -2.72097,-9.37154 -4.23227,-13.60382 -1.51166,-4.23262 -4.23228,-11.03489 -4.08129,-13.45318 0.15134,-2.41864 2.56963,-4.68595 2.56963,-4.68595 l 4.23228,9.22056 c 0,0 0.45367,-3.32529 -1.05798,-7.10424 -1.51165,-3.77896 -1.96497,-6.49993 0.45332,-7.40657 2.41864,-0.90735 2.87232,-0.15134 3.62761,-1.36067 0.75601,-1.20932 0.78564,-4.59316 0.78564,-4.59316 0,0 0.87736,-2.36009 3.296,-2.96475 0.39688,-0.0991 0.81457,-0.14534 1.23825,-0.14534 2.15759,0 4.47852,1.19909 5.11034,2.71533 0.75565,1.81363 4.98828,10.27853 6.80191,11.78983 0.37782,0.31503 0.72954,0.43992 1.04951,0.43992 1.21568,0 1.97344,-1.80023 1.97344,-1.80023 0,0 -0.90664,-13.90615 0,-15.56914 0.29069,-0.53269 0.79869,-0.8636 1.4344,-0.8636 1.34796,0 3.2706,1.48872 4.91454,5.70054 2.4183,6.19795 6.19725,16.77881 6.19725,16.77881 l 5.44195,10.12755 c 0,0 2.26695,-1.663 2.87161,-5.74428 0.60467,-4.08129 0.90735,-10.42988 2.56999,-11.33652 0.27305,-0.14922 0.53411,-0.22048 0.77823,-0.22048 1.24107,0 2.04399,1.84926 1.7914,4.75509 -0.30233,3.47662 -0.45332,9.06921 -0.756,12.84817 -0.30198,3.77895 -3.02295,17.53411 -4.38362,20.85975 -1.36031,3.32567 -3.70557,16.00874 -6.87987,17.21795 -3.17429,1.20897 -5.21229,0.77929 -8.23524,5.314 -3.02331,4.53485 -3.77896,6.65081 -9.52289,7.55784 -0.16369,0.0258 -0.32385,0.0385 -0.48119,0.0385"
           style="fill:#c6c7c6;fill-opacity:1;fill-rule:nonzero;stroke:none;stroke-width:0.0352778"
           id="path1024" />
        <path
           d="m -70.683668,132.68919 0.0113,0.0208 c 0.11854,0.21484 1.09573,2.09021 1.09326,4.08658 0,0.60748 -0.0892,1.22519 -0.31573,1.81327 l 0.32914,0.12665 c 0.24518,-0.63676 0.33937,-1.29822 0.33937,-1.93992 -0.003,-2.24861 -1.14441,-4.26685 -1.1497,-4.28026 l -0.30763,0.17286"
           style="fill:#17282f;fill-opacity:1;fill-rule:nonzero;stroke:none;stroke-width:0.0352778"
           id="path1026" />
        <path
           d="m -81.837088,138.58693 c -7e-4,0.002 -0.34819,0.97508 -0.69638,2.19569 -0.34784,1.22272 -0.6985,2.68464 -0.69991,3.70134 0,0.13582 0.006,0.26458 0.0205,0.38453 0.0571,0.47731 0.27375,1.18886 0.5775,2.04152 0.45578,1.27635 1.10948,2.85645 1.71802,4.31977 0.60819,1.46226 1.17228,2.81093 1.44428,3.6075 0.65793,1.91911 1.3282,6.35106 1.32609,8.65364 0,0.2346 -0.007,0.44662 -0.0212,0.63042 l 0.35172,0.0272 c 0.0152,-0.19579 0.0222,-0.41628 0.0222,-0.65758 -0.002,-2.36396 -0.66711,-6.77615 -1.34515,-8.76758 -0.37253,-1.09115 -1.25201,-3.1242 -2.06622,-5.11387 -0.40675,-0.99413 -0.79692,-1.97591 -1.09749,-2.81799 -0.30056,-0.84067 -0.51117,-1.54799 -0.55915,-1.96427 -0.0124,-0.10301 -0.0183,-0.21837 -0.0183,-0.34325 -0.001,-0.94086 0.34114,-2.39748 0.68651,-3.60433 0.17216,-0.60431 0.34466,-1.14864 0.47413,-1.54129 0.0646,-0.19614 0.11854,-0.35454 0.15628,-0.4639 0.0378,-0.10936 0.0589,-0.16863 0.0589,-0.16863 l -0.33232,-0.11888"
           style="fill:#17282f;fill-opacity:1;fill-rule:nonzero;stroke:none;stroke-width:0.0352778"
           id="path1028" />
        <path
           d="m -91.986858,151.48766 c -0.002,0.008 -0.072,0.36195 -0.072,0.88759 0,0.3944 0.0395,0.88547 0.17992,1.40053 0.16545,0.6036 0.63818,1.70285 1.15147,2.88184 0.51258,1.17581 1.06398,2.42358 1.37513,3.28083 0.31503,0.86536 1.05057,2.9404 1.71309,4.96111 0.33125,1.01001 0.64452,2.00696 0.87735,2.83069 0.23319,0.82092 0.38524,1.48202 0.39511,1.77236 0.0533,1.3268 0.21132,1.71238 0.22437,1.74413 l 0.3242,-0.13899 -0.0381,0.0162 0.0385,-0.0148 -3.6e-4,-0.001 -0.0381,0.0162 0.0385,-0.0148 c -0.007,-0.0169 -0.14817,-0.40076 -0.1965,-1.62066 -0.0162,-0.36689 -0.17321,-1.01953 -0.40816,-1.8542 -0.70521,-2.49344 -2.12408,-6.51263 -2.59821,-7.8165 -0.31891,-0.87701 -0.87101,-2.12549 -1.38324,-3.30129 -0.51189,-1.17299 -0.98496,-2.28107 -1.13489,-2.83352 -0.12982,-0.47589 -0.16757,-0.93733 -0.16722,-1.30774 0,-0.24695 0.0166,-0.45367 0.0332,-0.59761 0.008,-0.072 0.0162,-0.12841 0.0222,-0.16616 l 0.007,-0.0423 0.002,-0.0123 -0.34572,-0.0691"
           style="fill:#17282f;fill-opacity:1;fill-rule:nonzero;stroke:none;stroke-width:0.0352778"
           id="path1030" />
        <path
           d="m -77.967818,169.68182 c 0.004,0.009 0.13229,0.39582 0.43074,0.8629 0.2981,0.46637 0.76729,1.01776 1.45979,1.33808 l 0.14782,-0.32032 c -0.60537,-0.2787 -1.0347,-0.77541 -1.31057,-1.20756 -0.13758,-0.2159 -0.23671,-0.41416 -0.30092,-0.55774 -0.0321,-0.0716 -0.0557,-0.12947 -0.0709,-0.16898 l -0.0166,-0.0444 -0.005,-0.0134 -0.33478,0.11148"
           style="fill:#17282f;fill-opacity:1;fill-rule:nonzero;stroke:none;stroke-width:0.0352778"
           id="path1032" />
        <path
           d="m -85.763858,173.71972 c -0.005,0.0444 0.0314,1.2192 1.77765,2.3442 l 0.19191,-0.29633 c -0.82621,-0.53481 -1.22661,-1.05939 -1.42452,-1.44251 -0.0988,-0.19191 -0.1464,-0.34854 -0.17004,-0.45473 -0.0116,-0.0533 -0.0173,-0.0938 -0.0201,-0.11959 l -0.002,-0.0275 v -0.005 l -0.0469,0.001 h 0.0469 v -0.001 l -0.0469,0.001 h 0.0469 -0.35278"
           style="fill:#17282f;fill-opacity:1;fill-rule:nonzero;stroke:none;stroke-width:0.0352778"
           id="path1034" />
        <path
           d="m -44.222508,174.76253 c 0.0416,0.369 0.0646,0.75988 0.0646,1.17792 0,0.42192 -0.0233,0.87172 -0.0727,1.35502 l 0.35066,0.036 c 0.0508,-0.49424 0.0748,-0.95638 0.0748,-1.391 0,-0.43074 -0.0236,-0.83502 -0.067,-1.21779 l -0.35031,0.0399"
           style="fill:#17282f;fill-opacity:1;fill-rule:nonzero;stroke:none;stroke-width:0.0352778"
           id="path1036" />
        <path
           d="m -48.720428,161.97539 c 3.6e-4,0.002 0.25048,1.17828 0.66393,2.66841 0.41381,1.49119 0.98813,3.29389 1.64818,4.56459 0.61701,1.18534 1.22555,2.2031 1.65241,3.34575 l 0.33055,-0.12347 c -0.44238,-1.18181 -1.06009,-2.21157 -1.67005,-3.38526 -0.63782,-1.2252 -1.21143,-3.0166 -1.62136,-4.4958 -0.20497,-0.73978 -0.37007,-1.40229 -0.48331,-1.8796 -0.0568,-0.23848 -0.10089,-0.43074 -0.13053,-0.56339 -0.0296,-0.13264 -0.0448,-0.20461 -0.0448,-0.20461 l -0.34502,0.0734"
           style="fill:#17282f;fill-opacity:1;fill-rule:nonzero;stroke:none;stroke-width:0.0352778"
           id="path1038" />
        <path
           d="m -37.165188,140.1776 c -0.005,-3.5e-4 -0.049,-0.004 -0.12241,-0.004 -0.19262,3.6e-4 -0.58773,0.0251 -0.99448,0.21872 -0.4064,0.19192 -0.82233,0.56868 -1.00859,1.22908 -0.1584,0.55598 -0.22578,1.33809 -0.22614,2.14983 0,0.71367 0.0533,1.44709 0.1524,2.05881 0.0498,0.30586 0.11078,0.58138 0.18415,0.81139 0.0748,0.23036 0.15664,0.41487 0.27376,0.54892 0.4251,0.47943 0.93557,0.5588 1.20615,0.55739 0.12135,0 0.19791,-0.0145 0.20708,-0.0162 l -0.0692,-0.34607 0.005,0.0233 -0.004,-0.0233 h -3.6e-4 l 0.005,0.0233 -0.004,-0.0233 c -0.006,0.001 -0.0575,0.01 -0.13829,0.01 -0.21061,-10e-4 -0.60043,-0.0547 -0.94227,-0.43886 -0.0596,-0.0646 -0.13688,-0.2159 -0.20144,-0.42192 -0.19967,-0.62089 -0.32103,-1.72085 -0.31997,-2.76296 -7e-4,-0.79022 0.0692,-1.55469 0.21237,-2.05316 0.16264,-0.56163 0.48684,-0.84455 0.82162,-1.00718 0.33444,-0.16087 0.68192,-0.18486 0.84244,-0.18451 l 0.0698,0.001 0.0169,10e-4 0.004,3.6e-4 0.0321,-0.35137"
           style="fill:#17282f;fill-opacity:1;fill-rule:nonzero;stroke:none;stroke-width:0.0352778"
           id="path1040" />
        <path
           d="m -61.463468,116.76162 c 0,3.6e-4 0.0229,0.12453 0.0575,0.32985 0.10407,0.61383 0.3115,1.95651 0.3108,2.76119 3.5e-4,0.1524 -0.007,0.28469 -0.0226,0.38347 -0.003,0.0332 -0.042,0.11113 -0.13194,0.20179 -0.15522,0.16087 -0.4438,0.3549 -0.80081,0.54293 -0.53657,0.28363 -1.22943,0.56162 -1.89336,0.76623 -0.66251,0.20496 -1.3021,0.33584 -1.70991,0.33479 -0.1337,3.5e-4 -0.24095,-0.0145 -0.30762,-0.037 -0.0688,-0.0236 -0.084,-0.0466 -0.0868,-0.054 -0.16545,-0.36442 -0.24835,-0.69639 -0.28963,-0.93522 -0.0205,-0.11959 -0.0307,-0.2159 -0.0356,-0.28151 -0.003,-0.0325 -0.004,-0.0575 -0.005,-0.0737 l -3.6e-4,-0.0219 h -0.35277 c 3.5e-4,0.0162 10e-4,0.66286 0.36195,1.45838 0.0586,0.12841 0.17568,0.20285 0.29598,0.24236 0.12276,0.0406 0.26176,0.055 0.41945,0.0554 0.36301,-3.6e-4 0.82726,-0.0818 1.33209,-0.21343 0.75671,-0.19721 1.59879,-0.508 2.27154,-0.84385 0.33655,-0.16827 0.63041,-0.34184 0.85372,-0.51646 0.11183,-0.0878 0.20602,-0.17534 0.2801,-0.26741 0.073,-0.0921 0.12877,-0.18979 0.14711,-0.30374 0.0194,-0.1263 0.0268,-0.27305 0.0268,-0.43709 -10e-4,-1.13877 -0.37394,-3.14925 -0.37429,-3.1549 l -0.34679,0.0639"
           style="fill:#17282f;fill-opacity:1;fill-rule:nonzero;stroke:none;stroke-width:0.0352778"
           id="path1042" />
        <path
           d="m -81.352368,149.72201 c -3.5e-4,7e-4 -0.0804,0.24165 -0.21132,0.63394 -0.13088,0.39229 -0.31185,0.93556 -0.51293,1.53917 l 0.33478,0.11183 c 0.40217,-1.20756 0.7239,-2.17347 0.7239,-2.17347 l -0.33443,-0.11147"
           style="fill:#17282f;fill-opacity:1;fill-rule:nonzero;stroke:none;stroke-width:0.0352778"
           id="path1044" />
        <path
           d="m -55.387568,103.28833 c 0.10618,0 0.18415,-0.024 0.23424,-0.0723 0.0501,-0.0483 0.0829,-0.11289 0.0995,-0.19438 0.0169,-0.0815 0.0254,-0.16863 0.0254,-0.26176 v -1.90994 c 0,-0.0928 -0.008,-0.17921 -0.0254,-0.25929 -0.0166,-0.0797 -0.0494,-0.14358 -0.0995,-0.19191 -0.0501,-0.0483 -0.12806,-0.0723 -0.23424,-0.0723 -0.0998,0 -0.17463,0.024 -0.22472,0.0723 -0.0494,0.0483 -0.0829,0.11218 -0.0995,0.19191 -0.0169,0.0801 -0.025,0.16651 -0.025,0.25929 v 1.90994 c 0,0.0931 0.007,0.18027 0.0226,0.26176 0.0148,0.0815 0.0473,0.14605 0.0974,0.19438 0.0497,0.0483 0.12594,0.0723 0.22931,0.0723 z m 0,0.59338 c -0.29598,0 -0.53058,-0.0533 -0.70309,-0.15946 -0.17286,-0.10654 -0.29669,-0.25859 -0.37147,-0.45649 -0.0752,-0.19756 -0.11219,-0.43427 -0.11219,-0.7105 v -1.50565 c 0,-0.27588 0.037,-0.51188 0.11219,-0.70803 0.0748,-0.19614 0.19861,-0.345721 0.37147,-0.448732 0.17251,-0.103011 0.40711,-0.154517 0.70309,-0.154517 0.29915,0 0.53622,0.05221 0.71049,0.156633 0.17463,0.104775 0.29916,0.254706 0.37395,0.449086 0.0748,0.19438 0.11218,0.42968 0.11218,0.70556 v 1.50565 c 0,0.27623 -0.0374,0.51294 -0.11218,0.7105 -0.0748,0.1979 -0.19932,0.34995 -0.37395,0.45649 -0.17427,0.10619 -0.41134,0.15946 -0.71049,0.15946"
           style="fill:#17282f;fill-opacity:1;fill-rule:nonzero;stroke:none;stroke-width:0.0352778"
           id="path1074" />
        <path
           d="m -53.642728,103.82667 v -4.038597 h 0.57361 l 0.89747,2.104317 v -2.104317 h 0.67804 v 4.038597 h -0.54857 l -0.89747,-2.23379 v 2.23379 h -0.70308"
           style="fill:#17282f;fill-opacity:1;fill-rule:nonzero;stroke:none;stroke-width:0.0352778"
           id="path1076" />
        <path
           d="m -55.387568,122.66148 c 0.10618,0 0.18415,-0.024 0.23424,-0.0723 0.0501,-0.0483 0.0829,-0.11289 0.0995,-0.19438 0.0169,-0.0815 0.0254,-0.16863 0.0254,-0.26176 v -1.90994 c 0,-0.0928 -0.008,-0.17921 -0.0254,-0.25929 -0.0166,-0.0797 -0.0494,-0.14358 -0.0995,-0.19191 -0.0501,-0.0483 -0.12806,-0.0723 -0.23424,-0.0723 -0.0998,0 -0.17463,0.024 -0.22472,0.0723 -0.0494,0.0483 -0.0829,0.11218 -0.0995,0.19191 -0.0169,0.0801 -0.025,0.16651 -0.025,0.25929 v 1.90994 c 0,0.0931 0.007,0.18027 0.0226,0.26176 0.0148,0.0815 0.0473,0.14605 0.0974,0.19438 0.0497,0.0483 0.12594,0.0723 0.22931,0.0723 z m 0,0.59337 c -0.29598,0 -0.53058,-0.0533 -0.70309,-0.15945 -0.17286,-0.10654 -0.29669,-0.25859 -0.37147,-0.4565 -0.0752,-0.19755 -0.11219,-0.43427 -0.11219,-0.71049 v -1.50566 c 0,-0.27587 0.037,-0.51188 0.11219,-0.70802 0.0748,-0.19615 0.19861,-0.34573 0.37147,-0.44874 0.17251,-0.10301 0.40711,-0.15451 0.70309,-0.15451 0.29915,0 0.53622,0.0522 0.71049,0.15663 0.17463,0.10477 0.29916,0.25471 0.37395,0.44909 0.0748,0.19438 0.11218,0.42968 0.11218,0.70555 v 1.50566 c 0,0.27622 -0.0374,0.51294 -0.11218,0.71049 -0.0748,0.19791 -0.19932,0.34996 -0.37395,0.4565 -0.17427,0.10618 -0.41134,0.15945 -0.71049,0.15945"
           style="fill:#17282f;fill-opacity:1;fill-rule:nonzero;stroke:none;stroke-width:0.0352778"
           id="path1078" />
        <path
           d="m -53.642728,123.19982 v -4.0386 h 1.70532 v 0.55845 h -0.88265 v 1.09184 h 0.74789 v 0.57327 h -0.74789 v 1.81504 h -0.82267"
           style="fill:#17282f;fill-opacity:1;fill-rule:nonzero;stroke:none;stroke-width:0.0352778"
           id="path1080" />
        <path
           d="m -51.543708,123.19982 v -4.0386 h 1.70533 v 0.55845 h -0.88265 v 1.09184 h 0.74824 v 0.57327 h -0.74824 v 1.81504 h -0.82268"
           style="fill:#17282f;fill-opacity:1;fill-rule:nonzero;stroke:none;stroke-width:0.0352778"
           id="path1082" />
      </g>
      <text
         xml:space="preserve"
         style="font-style:normal;font-variant:normal;font-weight:normal;font-stretch:normal;font-size:7.09577px;line-height:1.25;font-family:'8BIT WONDER';-inkscape-font-specification:'8BIT WONDER, Normal';font-variant-ligatures:normal;font-variant-caps:normal;font-variant-numeric:normal;font-variant-east-asian:normal;fill:#000000;fill-opacity:1;stroke:none;stroke-width:0.177394"
         x="87.514771"
         y="134.06285"
         id="text3620-5"
         transform="scale(0.89133631,1.121911)"><tspan
           sodipodi:role="line"
           style="font-style:normal;font-variant:normal;font-weight:normal;font-stretch:normal;font-size:7.09577px;font-family:'8BIT WONDER';-inkscape-font-specification:'8BIT WONDER, Normal';font-variant-ligatures:normal;font-variant-caps:normal;font-variant-numeric:normal;font-variant-east-asian:normal;stroke-width:0.177394"
           x="87.514771"
           y="134.06285"
           id="tspan8555">LIGA DE</tspan></text>
      <text
         xml:space="preserve"
         style="font-style:normal;font-weight:normal;font-size:21.6123px;line-height:1.25;font-family:sans-serif;fill:#000000;fill-opacity:1;stroke:none;stroke-width:0.540306"
         x="90.978706"
         y="105.29079"
         id="text5343"
         transform="scale(0.6880184,1.4534495)"><tspan
           sodipodi:role="line"
           id="tspan5341"
           style="stroke-width:0.540306"
           x="90.978706"
           y="105.29079">&lt;</tspan></text>
      <text
         xml:space="preserve"
         style="font-style:normal;font-weight:normal;font-size:20.9008px;line-height:1.25;font-family:sans-serif;fill:#000000;fill-opacity:1;stroke:none;stroke-width:0.522521"
         x="-203.41283"
         y="100.79087"
         id="text5343-8"
         transform="scale(-0.66537075,1.5029215)"><tspan
           sodipodi:role="line"
           id="tspan5341-6"
           style="stroke-width:0.522521"
           x="-203.41283"
           y="100.79087">&lt;</tspan></text>
      <g
         aria-label="V"
         transform="matrix(0.63849248,0,0,0.7040456,35.329427,30.988632)"
         id="text12837"
         style="font-size:30.7823px;line-height:1.25;stroke-width:0.769558">
        <path
           d="m 127.13861,168.64955 -3.56453,-8.42964 3.20922,0.0703 2.06877,4.81213 7.12442,-18.89324 h 3.15639 l -8.55231,22.44042 z"
           id="path13359"
           sodipodi:nodetypes="cccccccc" />
      </g>
      <text
         xml:space="preserve"
         style="font-style:normal;font-variant:normal;font-weight:normal;font-stretch:normal;font-size:11.855px;line-height:1.25;font-family:'8BIT WONDER';-inkscape-font-specification:'8BIT WONDER, Normal';font-variant-ligatures:normal;font-variant-caps:normal;font-variant-numeric:normal;font-variant-east-asian:normal;fill:#000000;fill-opacity:1;stroke:none;stroke-width:0.296376"
         x="78.766945"
         y="152.57986"
         id="text43216"
         transform="scale(1.0694023,0.93510179)"><tspan
           sodipodi:role="line"
           id="tspan43214"
           style="font-style:normal;font-variant:normal;font-weight:normal;font-stretch:normal;font-size:11.855px;font-family:'8BIT WONDER';-inkscape-font-specification:'8BIT WONDER, Normal';font-variant-ligatures:normal;font-variant-caps:normal;font-variant-numeric:normal;font-variant-east-asian:normal;stroke-width:0.296376"
           x="78.766945"
           y="152.57986">SE</tspan></text>
      <g
         id="g1401"
         transform="matrix(0.26706823,0,0,0.26779197,114.88169,136.90607)">
        <path
           d="m -27.848391,-22.983148 2.83e-4,-3.52e-4 -2.83e-4,3.52e-4 m 0.0175,-0.01834 6.71e-4,-7.06e-4 -6.71e-4,7.06e-4 m 0.01736,-0.01799 0.0012,-0.0014 -0.0012,0.0014 m 0.0357,-0.03739 5.29e-4,-3.53e-4 -5.29e-4,3.53e-4 m 0.01778,-0.01835 2.82e-4,-3.52e-4 -2.82e-4,3.52e-4 m 0.01764,-0.01834 6.7e-4,-7.06e-4 -6.7e-4,7.06e-4 m 0.141111,-0.145344 8.11e-4,-0.0011 c -0.0015,0.0018 7.06e-4,-7.05e-4 -8.11e-4,0.0011 m 0.01598,-0.01623 c 6.7e-4,-0.0011 0.0022,-0.0025 0.0029,-0.0032 l -0.0029,0.0032 m 0.01626,-0.01693 c 0.0015,-0.0014 0.0034,-0.0035 0.0049,-0.0049 -0.0015,0.0014 -0.0034,0.0035 -0.0049,0.0049 m 0.01693,-0.01729 c 0.0024,-0.0025 0.0041,-0.0042 0.0064,-0.0063 -0.0015,0.0014 -0.0047,0.0046 -0.0064,0.0063 m 0.01736,-0.01764 c 0.0024,-0.0025 0.0051,-0.0053 0.0073,-0.0074 -0.0015,0.0014 -0.0056,0.0056 -0.0073,0.0074 m 0.01834,-0.0187 c 0.0022,-0.0021 0.0046,-0.0046 0.0067,-0.0067 -0.0016,0.0014 -0.0051,0.0049 -0.0067,0.0067 m 0.0182,-0.01834 c 0.0022,-0.0025 0.0048,-0.0049 0.007,-0.0074 -0.0015,0.0018 -0.0055,0.0056 -0.007,0.0074 m 0.01764,-0.01799 c 0.0029,-0.0028 0.0048,-0.0049 0.0077,-0.0078 -0.003,0.0032 -0.0047,0.0046 -0.0077,0.0078 m 0.01764,-0.01799 c 0.003,-0.0028 0.006,-0.006 0.009,-0.0088 -0.003,0.0032 -0.0058,0.0056 -0.009,0.0088 m 0.01788,-0.01799 c 0.003,-0.0032 0.0061,-0.006 0.009,-0.0092 -0.003,0.0032 -0.0058,0.006 -0.009,0.0092 m 0.01835,-0.01835 c 0.003,-0.0032 0.0065,-0.0067 0.0094,-0.0095 -0.003,0.0032 -0.0062,0.0064 -0.0094,0.0095 m 0.01792,-0.01834 c 0.0037,-0.0035 0.0063,-0.0064 0.01005,-0.0099 -0.003,0.0028 -0.0069,0.0067 -0.01005,0.0099 m 0.01817,-0.01799 c 0.0037,-0.0039 0.0069,-0.0071 0.01062,-0.01094 -0.003,0.0032 -0.0076,0.0078 -0.01062,0.01094 m 0.0182,-0.01834 c 0.003,-0.0032 0.0079,-0.0078 0.01076,-0.01094 -0.003,0.0032 -0.0076,0.0078 -0.01076,0.01094 m 0.0182,-0.01835 c 0.0037,-0.0039 0.008,-0.0081 0.01171,-0.01164 -0.0047,0.0046 -0.0071,0.0071 -0.01171,0.01164 m 0.01817,-0.01834 c 0.0037,-0.0035 0.0084,-0.0081 0.01228,-0.01199 -0.0048,0.0046 -0.0076,0.0074 -0.01228,0.01199 m 0.01849,-0.01835 c 0.0044,-0.0046 0.0093,-0.0095 0.0139,-0.01376 -0.0047,0.0046 -0.0092,0.0092 -0.0139,0.01376 m 0.01803,-0.01799 c 0.0059,-0.006 0.01062,-0.01058 0.01655,-0.01658 -0.0062,0.0064 -0.01034,0.01023 -0.01655,0.01658 m 0.01835,-0.01835 c 0.01944,-0.01905 0.03665,-0.03634 0.05609,-0.05574 -0.01887,0.0187 -0.03736,0.0374 -0.05609,0.05574 m 0.05637,-0.05574 c 0.0059,-0.006 0.0121,-0.01199 0.01803,-0.01799 -0.0062,0.006 -0.01185,0.01164 -0.01803,0.01799 m 0.02078,-0.02081 c 0.0053,-0.0053 0.01048,-0.01023 0.01573,-0.01552 -0.0047,0.0046 -0.01104,0.01094 -0.01573,0.01552 m 0.0193,-0.01905 c 0.0046,-0.0042 0.01034,-0.01023 0.01489,-0.01446 -0.0047,0.0046 -0.01019,0.0099 -0.01489,0.01446 m 0.0193,-0.01905 c 0.0053,-0.0053 0.0091,-0.0088 0.01432,-0.01411 -0.0047,0.0046 -0.0096,0.0095 -0.01432,0.01411 m 0.01806,-0.01799 c 0.0052,-0.0049 0.0095,-0.0092 0.01475,-0.01411 -0.0048,0.0046 -0.01005,0.0099 -0.01475,0.01411 m 0.0193,-0.0187 c 0.0044,-0.0046 0.0093,-0.0092 0.0139,-0.01376 -0.0047,0.0049 -0.0092,0.0092 -0.0139,0.01376 m 0.01845,-0.01799 c 0.0044,-0.0046 0.0097,-0.0095 0.01422,-0.01411 -0.0047,0.0046 -0.0095,0.0095 -0.01422,0.01411 m 0.01849,-0.01799 c 0.0052,-0.0053 0.0095,-0.0095 0.01475,-0.01446 -0.0047,0.0042 -0.01009,0.0095 -0.01475,0.01446 m 0.01803,-0.01799 c 0.0053,-0.0049 0.0098,-0.0095 0.01503,-0.01446 -0.0062,0.006 -0.0087,0.0085 -0.01503,0.01446 m 0.01901,-0.0187 c 0.0053,-0.0049 0.01009,-0.0095 0.01517,-0.01446 -0.0062,0.006 -0.0088,0.0085 -0.01517,0.01446 m 0.0182,-0.01764 c 0.0053,-0.0049 0.01034,-0.0099 0.01556,-0.01482 -0.0062,0.006 -0.0092,0.0088 -0.01556,0.01482 m 0.01887,-0.01799 c 0.0059,-0.006 0.01048,-0.01023 0.0164,-0.01623 -0.0062,0.006 -0.01019,0.0099 -0.0164,0.01623 m 0.01806,-0.01764 c 0.0059,-0.006 0.01143,-0.01129 0.01736,-0.01693 -0.0062,0.006 -0.01115,0.01058 -0.01736,0.01693 m 0.01873,-0.01834 c 0.0059,-0.0056 0.01228,-0.01164 0.0182,-0.01764 -0.0063,0.0064 -0.01199,0.01164 -0.0182,0.01764 m 0.01849,-0.01764 c 1.810738,-1.751895 3.735987,-3.183467 5.779488,-4.239684 -2.043783,1.056217 -3.968468,2.487436 -5.779488,4.239684 m 5.780158,-4.240037 c 0.0068,-0.0035 0.01379,-0.0071 0.02053,-0.01058 -0.007,0.0035 -0.01348,0.0067 -0.02053,0.01058 m 0.02124,-0.01094 c 0.0067,-0.0035 0.01404,-0.0074 0.02081,-0.01058 -0.0072,0.0035 -0.01365,0.0067 -0.02081,0.01058 m 0.0211,-0.01094 c 0.0067,-0.0035 0.01333,-0.0067 0.02011,-0.01023 -0.0072,0.0035 -0.01309,0.0067 -0.02011,0.01023 m 0.02215,-0.01129 c 0.0059,-0.0032 0.01323,-0.0067 0.01916,-0.0099 -0.0072,0.0035 -0.01196,0.006 -0.01916,0.0099 m 0.0211,-0.01094 c 0.0067,-0.0035 0.01267,-0.0064 0.01944,-0.0099 -0.007,0.0035 -0.01228,0.0064 -0.01944,0.0099 m 0.02124,-0.01094 c 0.0067,-0.0032 0.01323,-0.0067 0.02011,-0.01023 -0.0072,0.0039 -0.01309,0.0067 -0.02011,0.01023 m 0.02092,-0.01058 c 0.0068,-0.0032 0.01309,-0.0067 0.01986,-0.01023 -0.007,0.0039 -0.01267,0.0067 -0.01986,0.01023 m 0.02166,-0.01094 c 0.0067,-0.0035 0.01376,-0.0071 0.02067,-0.01058 -0.0072,0.0039 -0.01365,0.0071 -0.02067,0.01058 m 0.02081,-0.01058 c 0.0569,-0.02858 0.113947,-0.05715 0.170991,-0.08537 -0.05719,0.02822 -0.114088,0.0568 -0.170991,0.08537 m 0.171697,-0.08573 c 0.0067,-0.0032 0.01337,-0.0064 0.02011,-0.0099 -0.007,0.0035 -0.01309,0.0067 -0.02011,0.0099 m 0.02328,-0.01129 c 0.0059,-0.0032 0.01214,-0.006 0.01806,-0.0088 -0.0072,0.0035 -0.0109,0.0053 -0.01806,0.0088 m 0.02205,-0.01094 c 0.0059,-0.0028 0.01062,-0.0053 0.01654,-0.0081 -0.0054,0.0025 -0.01132,0.0056 -0.01654,0.0081 m 0.02258,-0.01094 c 0.0051,-0.0025 0.0099,-0.0049 0.01503,-0.0074 -0.0052,0.0025 -0.0096,0.0046 -0.01503,0.0074 m 0.02138,-0.01058 c 0.0051,-0.0025 0.0095,-0.0046 0.0146,-0.0071 -0.0054,0.0025 -0.0092,0.0046 -0.0146,0.0071 m 0.02134,-0.01023 c 0.0043,-0.0021 0.01048,-0.0053 0.01475,-0.0071 -0.0054,0.0025 -0.0093,0.0042 -0.01475,0.0071 m 0.0211,-0.01023 c 0.0043,-0.0021 0.01005,-0.0049 0.01432,-0.0071 -0.0036,0.0018 -0.01073,0.0053 -0.01432,0.0071 m 0.02163,-0.01058 c 0.0051,-0.0025 0.0087,-0.0042 0.01394,-0.0067 -0.0036,0.0018 -0.01034,0.0049 -0.01394,0.0067 m 0.02124,-0.01023 c 0.0043,-0.0018 0.0095,-0.0046 0.01379,-0.0064 -0.0036,0.0014 -0.01023,0.0046 -0.01379,0.0064 m 0.0211,-0.01023 c 0.0043,-0.0018 0.0096,-0.0046 0.0139,-0.0064 -0.0036,0.0014 -0.01034,0.0049 -0.0139,0.0064 m 0.0212,-0.0099 c 0.0043,-0.0021 0.0094,-0.0046 0.01365,-0.0067 -0.0036,0.0018 -0.01005,0.0049 -0.01365,0.0067 m 0.02124,-0.01023 c 0.0052,-0.0025 0.0088,-0.0042 0.0139,-0.0067 -0.0054,0.0025 -0.0085,0.0042 -0.0139,0.0067 m 0.02106,-0.0099 c 0.0043,-0.0021 0.0097,-0.0046 0.01394,-0.0067 -0.0055,0.0025 -0.0085,0.0039 -0.01394,0.0067 m 0.02138,-0.01023 c 0.0043,-0.0021 0.0093,-0.0046 0.01365,-0.0067 -0.0054,0.0028 -0.0083,0.0042 -0.01365,0.0067 m 0.0212,-0.01023 c 0.0043,-0.0018 0.0087,-0.0039 0.01309,-0.006 -0.0055,0.0025 -0.0077,0.0035 -0.01309,0.006 m 0.02138,-0.0099 c 0.0051,-0.0025 0.0084,-0.0039 0.01351,-0.0064 -0.0054,0.0025 -0.0081,0.0039 -0.01351,0.0064 m 0.02096,-0.0099 c 0.0044,-0.0021 0.01073,-0.0053 0.01499,-0.0071 -0.0054,0.0025 -0.0095,0.0042 -0.01499,0.0071 m 0.0212,-0.0099 c 0.0069,-0.0035 0.01432,-0.0067 0.0211,-0.0099 -0.0072,0.0032 -0.01394,0.0063 -0.0211,0.0099 m 0.0211,-0.0099 c 0.646007,-0.301625 1.307324,-0.588434 1.982717,-0.860425 -0.676063,0.272344 -1.336005,0.558447 -1.982717,0.860425"
           style="fill:#ffffff;fill-opacity:1;fill-rule:nonzero;stroke:none;stroke-width:0.0352778"
           id="path1046" />
        <path
           d="m -4.1582323,24.817892 c -11.7439727,0 -21.2645287,-10.255251 -21.2645287,-22.905863 0,-12.650612 9.520556,-22.905863 21.2645287,-22.905863 11.7439729,0 21.2643873,10.255251 21.2643873,22.905863 0,12.650612 -9.5204144,22.905863 -21.2643873,22.905863"
           style="fill:#f2f2f2;fill-opacity:1;fill-rule:nonzero;stroke:none;stroke-width:0.0352778"
           id="path1052-4" />
        <path
           d="m -23.987943,-1.4862795 c 0,10.9304674 9.237557,19.7033455 20.3317135,18.9374655 C 5.5932516,16.813011 13.133524,9.3965628 13.911047,0.15731227 14.35343,-5.0997825 12.650219,-9.9536523 9.582463,-13.631008 6.7859933,-16.983103 5.2581127,-21.211145 5.2581127,-25.576064 v -2.601384 H -15.265441 v 2.601384 c 0,4.360333 -1.519944,8.588022 -4.315708,11.934473 -2.750679,3.292122 -4.406794,7.5293362 -4.406794,12.1553115"
           style="fill:#ffffff;fill-opacity:1;fill-rule:nonzero;stroke:none;stroke-width:0.0352778"
           id="path1054-3" />
        <path
           d="m -23.987943,-1.4862795 h -0.176389 c 1.06e-4,10.5819229 8.578568,19.1604205 19.1604913,19.1604205 0.4497917,0 0.9031111,-0.01552 1.3596056,-0.04692 C 5.6934405,16.981991 13.300741,9.4992212 14.08673,0.17212893 c 0.04692,-0.55738892 0.06985,-1.11054451 0.06985,-1.65840843 0,-4.6633697 -1.667934,-8.9369205 -4.4386504,-12.2576175 -2.7700112,-3.320345 -4.283428,-7.508523 -4.283428,-11.832167 v -2.601384 c 0,-0.04657 -0.01905,-0.09172 -0.051858,-0.124883 -0.032808,-0.03281 -0.078317,-0.05151 -0.1245306,-0.05151 h -20.523554 c -0.04657,0 -0.09172,0.0187 -0.124884,0.05151 -0.03281,0.03316 -0.0515,0.07832 -0.0515,0.124883 v 2.601384 c 0,4.319411 -1.505726,8.506884 -4.274609,11.821231 -2.77622,3.322461 -4.447893,7.6002449 -4.447893,12.2685535 h 0.176389 0.176389 c 1.06e-4,-4.583642 1.640417,-8.7802865 4.365731,-12.0424225 2.822505,-3.378201 4.356771,-7.645754 4.356771,-12.047362 v -2.424995 H 5.0817238 v 2.424995 c 0,4.406194 1.5423445,8.674453 4.3652725,12.057945 2.7199167,3.260725 4.3568057,7.4531364 4.3568057,12.0318395 0,0.53798614 -0.02258,1.08126395 -0.06879,1.6287751 C 12.965955,9.2935517 5.4934155,16.64403 -3.6685768,17.275149 c -0.4483805,0.03105 -0.8935861,0.04621 -1.3352639,0.04621 -5.1939473,0 -9.8950643,-2.104672 -13.2990173,-5.508625 -3.403777,-3.403953 -5.50859,-8.1047172 -5.508696,-13.2990175 h -0.176389"
           style="fill:#17282f;fill-opacity:1;fill-rule:nonzero;stroke:none;stroke-width:0.0352778"
           id="path1056" />
        <path
           d="M -15.265441,-33.259565 H 5.2581127 v 5.076825 H -15.265441 v -5.076825"
           style="fill:#75797a;fill-opacity:1;fill-rule:nonzero;stroke:none;stroke-width:0.0352778"
           id="path1058-9" />
        <path
           d="m -15.265441,-33.259565 v 0.176389 H 5.0817238 v 4.724048 H -15.089052 v -4.900437 h -0.176389 v 0.176389 -0.176389 h -0.176389 v 5.076825 c 0,0.04657 0.0187,0.09172 0.0515,0.124884 0.03316,0.03246 0.07832,0.05151 0.124884,0.05151 H 5.2581127 c 0.046214,0 0.091722,-0.01905 0.1245306,-0.05151 0.032808,-0.03316 0.051858,-0.07832 0.051858,-0.124884 v -5.076825 c 0,-0.04621 -0.01905,-0.09172 -0.051858,-0.124883 -0.032808,-0.03281 -0.078317,-0.05151 -0.1245306,-0.05151 H -15.265441 c -0.04657,0 -0.09172,0.0187 -0.124884,0.05151 -0.03281,0.03316 -0.0515,0.07867 -0.0515,0.124883 h 0.176389"
           style="fill:#17282f;fill-opacity:1;fill-rule:nonzero;stroke:none;stroke-width:0.0352778"
           id="path1060" />
        <path
           d="m -9.6947271,-41.610168 h 9.38212555 c 1.64641395,0 2.98061965,1.334558 2.98061965,2.980972 0,1.157464 -0.9380362,2.095853 -2.09550015,2.095853 H -10.580199 c -1.157112,0 -2.095501,-0.938389 -2.095501,-2.095853 v -3.53e-4 c 0,-1.646061 1.334559,-2.980619 2.9809729,-2.980619"
           style="fill:#17282f;fill-opacity:1;fill-rule:nonzero;stroke:none;stroke-width:0.0352778"
           id="path1062" />
        <path
           d="m -9.6947271,-41.610168 v 0.176389 h 9.38212555 c 0.77505283,3.53e-4 1.47496395,0.313619 1.98296405,0.821619 0.508,0.508 0.8212667,1.207911 0.8212667,1.982964 0,0.530578 -0.2144889,1.009298 -0.561975,1.357136 -0.347839,0.347487 -0.8265584,0.561975 -1.35713625,0.562328 H -10.580199 c -0.530578,-3.53e-4 -1.009298,-0.214841 -1.357137,-0.562328 -0.347486,-0.347838 -0.561975,-0.826558 -0.561975,-1.357136 v -3.53e-4 c 0,-0.7747 0.31362,-1.474611 0.821267,-1.982964 0.508353,-0.507647 1.208264,-0.820913 1.9833169,-0.821266 v -0.176389 -0.176389 c -1.7437809,3.53e-4 -3.1573609,1.413581 -3.1573609,3.157008 v 3.53e-4 c 0,1.254831 1.017058,2.271889 2.271889,2.272242 H 0.57251795 c 1.25483065,-3.53e-4 2.27188905,-1.017411 2.27188905,-2.272242 0,-1.74378 -1.4132279,-3.157008 -3.15700855,-3.157361 H -9.6947271 v 0.176389"
           style="fill:#17282f;fill-opacity:1;fill-rule:nonzero;stroke:none;stroke-width:0.0352778"
           id="path1064-7" />
        <path
           d="M -12.284469,-38.348385 H 2.2771403 c 1.646414,0 2.9809724,1.334206 2.9809724,2.98062 v 2.095853 H -15.265441 v -2.095853 c 0,-1.646414 1.334558,-2.98062 2.980972,-2.98062"
           style="fill:#75797a;fill-opacity:1;fill-rule:nonzero;stroke:none;stroke-width:0.0352778"
           id="path1066" />
        <path
           d="m -12.284469,-38.348385 v 0.176389 H 2.2771403 c 0.7750528,0 1.474964,0.313267 1.982964,0.821267 0.508,0.508 0.8216195,1.207911 0.8216195,1.982964 v 1.919464 H -15.089052 v -1.919464 c 0,-0.775053 0.313619,-1.474964 0.821266,-1.982964 0.508353,-0.508 1.208264,-0.821267 1.983317,-0.821267 v -0.176389 -0.176389 c -1.743781,0 -3.157361,1.413228 -3.157361,3.157009 v 2.095853 c 0,0.04657 0.0187,0.09172 0.0515,0.124883 0.03316,0.03281 0.07832,0.05151 0.124884,0.05151 H 5.2581127 c 0.046214,0 0.091722,-0.0187 0.1245306,-0.05151 0.032808,-0.03316 0.051858,-0.07832 0.051858,-0.124883 v -2.095853 C 5.4341485,-37.111546 4.0209206,-38.524774 2.27714,-38.524774 h -14.561609 v 0.176389"
           style="fill:#17282f;fill-opacity:1;fill-rule:nonzero;stroke:none;stroke-width:0.0352778"
           id="path1068-2" />
        <path
           d="m -3.1457601,-53.645536 h -3.7161613 v 12.633326 h 3.7161613 v -12.633326"
           style="fill:#17282f;fill-opacity:1;fill-rule:nonzero;stroke:none;stroke-width:0.0352778"
           id="path1070" />
        <path
           d="m -3.1457601,-53.645536 v -0.176388 h -3.7161613 c -0.046567,0 -0.092075,0.0187 -0.1248833,0.05151 -0.032808,0.03316 -0.051506,0.07832 -0.051506,0.124883 v 12.633326 c 0,0.04657 0.018697,0.09172 0.051506,0.124884 0.032808,0.03281 0.078317,0.0515 0.1248833,0.0515 h 3.7161613 c 0.046567,0 0.091722,-0.0187 0.1248834,-0.0515 0.032808,-0.03316 0.051506,-0.07832 0.051506,-0.124884 v -12.633326 c 0,-0.04657 -0.018697,-0.09172 -0.051506,-0.124883 -0.033161,-0.03281 -0.078317,-0.05151 -0.1248834,-0.05151 v 0.176388 H -3.322149 v 12.456937 h -3.3633835 v -12.280548 h 3.5397724 v -0.176389 h -0.1763889 0.1763889"
           style="fill:#17282f;fill-opacity:1;fill-rule:nonzero;stroke:none;stroke-width:0.0352778"
           id="path1072" />
      </g>
    </g>
  </g>
</svg>
